<?xml version="1.0" encoding="UTF-8"?> <svg xmlns="http://www.w3.org/2000/svg" xmlns:xlink="http://www.w3.org/1999/xlink" id="uuid-7da581e0-b959-4c4f-b8bf-4a951df79665" width="65.758mm" height="14.565mm" viewBox="0 0 186.4 41.288"><defs><linearGradient id="uuid-eacdec47-aec6-43fa-9587-63e1ac41ce24" x1="18.036" y1="-8.486" x2="29.476" y2="44.536" gradientTransform="translate(-.002 40.574) scale(1 -1)" gradientUnits="userSpaceOnUse"><stop offset="0" stop-color="#1d71b8"></stop><stop offset="1" stop-color="#7590c1"></stop></linearGradient><linearGradient id="uuid-ff5683b3-7eaf-4d4a-9756-260c483ee5f6" x1="10.534" y1="-6.868" x2="21.975" y2="46.155" gradientTransform="translate(-.002 40.574) scale(1 -1)" gradientUnits="userSpaceOnUse"><stop offset="0" stop-color="#1d71b8"></stop><stop offset="1" stop-color="#7590c1"></stop></linearGradient><linearGradient id="uuid-6d5ab795-3cec-4251-a849-c08bbda40ba1" x1="4.506" y1="-7.832" x2="15.947" y2="45.19" gradientTransform="translate(-.002 40.574) scale(1 -1)" gradientUnits="userSpaceOnUse"><stop offset="0" stop-color="#1d71b8"></stop><stop offset="1" stop-color="#7590c1"></stop></linearGradient><linearGradient id="uuid-31668a88-0b18-4af1-9dd0-5e6839ec132c" x1="12.811" y1="-9.624" x2="24.251" y2="43.398" gradientTransform="translate(-.002 40.574) scale(1 -1)" gradientUnits="userSpaceOnUse"><stop offset="0" stop-color="#1d71b8"></stop><stop offset="1" stop-color="#7590c1"></stop></linearGradient></defs><path d="M30.463,29.175c-.982-3.501-3.039-7.116-4.903-9.567-2.838-3.733,14.215,14.407,8.193,19.612-7.987,6.903-31.269-5.855-26.394-3.881,3.668,1.485,9.434,2.904,14.84,2.81,1.096-.019,6.236-.105,8.095-2.101,1.862-1.999.44-5.91.17-6.873h0Z" fill="url(#uuid-eacdec47-aec6-43fa-9587-63e1ac41ce24)"></path><path d="M23.768,23.818c-.982-3.501-3.039-7.116-4.903-9.567-2.838-3.733,14.215,14.407,8.193,19.612-7.987,6.903-31.269-5.855-26.394-3.881,3.668,1.485,9.434,2.904,14.84,2.81,1.096-.019,6.236-.105,8.095-2.101,1.862-1.999.44-5.91.17-6.873h-.001Z" fill="url(#uuid-ff5683b3-7eaf-4d4a-9756-260c483ee5f6)"></path><path d="M14.324,2.414c4.323.01,9.02.866,12.311,1.826C31.646,5.702,6.562-4.045,1.815,2.003c-6.296,8.022,13.88,24.025,10.472,20.518-2.564-2.639-5.521-6.994-6.624-11.395-.224-.892-1.277-5.077.645-7.032,1.922-1.955,6.826-1.683,8.016-1.68Z" fill="url(#uuid-6d5ab795-3cec-4251-a849-c08bbda40ba1)"></path><path d="M22.104,6.637c4.323.01,9.02.866,12.311,1.826C39.426,9.925,14.342.177,9.594,6.226c-6.296,8.022,13.88,24.025,10.472,20.518-2.564-2.639-5.521-6.994-6.624-11.395-.224-.892-1.277-5.077.645-7.032s6.826-1.683,8.016-1.68h.001Z" fill="url(#uuid-31668a88-0b18-4af1-9dd0-5e6839ec132c)"></path><path d="M45.899,24.416c-1.568,0-2.97-.247-4.206-.742-1.236-.494-2.264-1.218-3.084-2.171l2.333-3.726c.772.82,1.58,1.447,2.424,1.881.844.434,1.688.651,2.532.651.471,0,.878-.075,1.221-.226.343-.151.615-.377.814-.679.199-.301.299-.663.299-1.085,0-.482-.136-.859-.407-1.13-.271-.272-.687-.531-1.248-.778s-1.269-.54-2.125-.877c-.76-.326-1.483-.688-2.171-1.085-.688-.398-1.245-.905-1.674-1.52-.428-.615-.642-1.393-.642-2.334,0-1.146.32-2.156.959-3.03s1.522-1.562,2.65-2.062c1.127-.5,2.427-.751,3.899-.751.916,0,1.878.142,2.885.425,1.006.283,2.083.709,3.229,1.276l-1.899,3.563c-1.556-1.001-2.948-1.501-4.179-1.501-.687,0-1.237.151-1.646.452-.41.301-.615.681-.615,1.14,0,.422.214.796.642,1.122.428.325.952.612,1.574.859.621.247,1.215.479,1.782.697.928.325,1.748.694,2.46,1.103.712.41,1.276.944,1.692,1.601.416.658.624,1.535.624,2.632,0,1.339-.32,2.475-.959,3.41s-1.571,1.649-2.795,2.143c-1.224.495-2.68.742-4.369.742Z" fill="#1d1d1b"></path><path d="M78.333,24.416c-2.05,0-3.899-.419-5.544-1.258-1.646-.838-2.949-1.996-3.907-3.473-.959-1.477-1.438-3.181-1.438-5.11s.479-3.633,1.438-5.11c.959-1.477,2.258-2.635,3.898-3.473,1.64-.838,3.485-1.257,5.536-1.257s3.895.419,5.535,1.257,2.94,1.996,3.899,3.473c.959,1.478,1.438,3.181,1.438,5.11s-.479,3.633-1.438,5.11c-.959,1.478-2.258,2.635-3.899,3.473s-3.479,1.258-5.517,1.258h-.001ZM78.333,19.677c.941,0,1.797-.217,2.569-.651.772-.434,1.381-1.034,1.827-1.8s.669-1.649.669-2.65-.223-1.884-.669-2.65c-.446-.765-1.055-1.365-1.827-1.8-.772-.434-1.628-.651-2.569-.651-.953,0-1.812.217-2.578.651s-1.375,1.034-1.827,1.8c-.452.766-.679,1.649-.679,2.65s.226,1.884.679,2.65,1.061,1.366,1.827,1.8,1.625.651,2.578.651Z" fill="#1d1d1b"></path><path d="M102.121,24.416c-3.389,0-5.828-.669-7.317-2.008-1.49-1.339-2.234-3.521-2.234-6.548V5.314h5.554v9.226c0,1.954.299,3.332.895,4.134.597.802,1.631,1.203,3.102,1.203,1.447,0,2.472-.401,3.075-1.203s.905-2.18.905-4.134V5.314h5.553v10.546c0,3.027-.741,5.21-2.225,6.548-1.483,1.339-3.92,2.008-7.308,2.008Z" fill="#1d1d1b"></path><path d="M125.564,24.416c-2.002,0-3.799-.434-5.391-1.302-1.592-.868-2.846-2.041-3.762-3.519-.917-1.477-1.375-3.15-1.375-5.02,0-1.375.259-2.659.778-3.853.519-1.194,1.248-2.24,2.189-3.139.941-.898,2.032-1.598,3.274-2.098s2.587-.751,4.034-.751c1.929,0,3.621.398,5.074,1.194s2.587,1.908,3.401,3.338,1.227,3.084,1.239,4.966c-.012.157-.021.296-.027.416-.006.121-.027.344-.063.67h-14.2c0,.929.214,1.745.642,2.451s1.028,1.255,1.8,1.646c.772.392,1.67.588,2.696.588.964,0,1.815-.19,2.551-.57.735-.38,1.453-.98,2.152-1.8l3.998,2.026c-.868,1.483-2.099,2.647-3.69,3.491s-3.365,1.266-5.319,1.266h-.001ZM120.915,12.224h8.629c-.121-.723-.377-1.341-.769-1.854-.392-.512-.89-.907-1.493-1.185-.603-.277-1.284-.416-2.044-.416-.808,0-1.52.139-2.135.416-.615.278-1.113.673-1.492,1.185-.38.513-.613,1.131-.697,1.854h0Z" fill="#1d1d1b"></path><path d="M60.841,0c.603,0,1.151.148,1.646.443.495.296.893.691,1.194,1.185.302.495.452,1.043.452,1.646s-.151,1.158-.452,1.664c-.301.506-.699.907-1.194,1.203s-1.043.443-1.646.443-1.155-.147-1.655-.443c-.5-.296-.898-.697-1.194-1.203-.295-.507-.443-1.061-.443-1.664s.15-1.151.452-1.646c.301-.494.699-.889,1.194-1.185C59.69.148,60.238,0,60.841,0"></path><path d="M60.841,8.586c-1.248,0-2.072-.362-2.477-.594-.131-.075-.291.025-.291.176v15.671h5.554v-15.686c0-.151-.162-.252-.293-.175-.408.238-1.239.609-2.493.609Z" fill="#1d1d1b"></path><path d="M149.858,23.837V5.314h5.572v2.659c.687-1.037,1.525-1.836,2.514-2.397s2.062-.841,3.22-.841c.651,0,1.323.097,2.017.289.694.193,1.287.44,1.782.741l-2.334,4.685c-.398-.277-.877-.498-1.438-.66s-1.07-.244-1.529-.244c-.736,0-1.426.187-2.071.561s-1.167.859-1.564,1.457c-.398.597-.597,1.239-.597,1.926v10.347s-5.572,0-5.572,0Z" fill="#1d1d1b"></path><path d="M174.369,24.416c-1.7,0-3.247-.425-4.64-1.276-1.393-.85-2.497-2.02-3.31-3.509-.814-1.489-1.221-3.181-1.221-5.074,0-1.869.395-3.542,1.185-5.02.79-1.477,1.875-2.647,3.256-3.509,1.381-.862,2.958-1.293,4.731-1.293,1.314,0,2.541.25,3.681.751,1.14.5,2.071,1.197,2.795,2.089v-2.261h5.554v18.524h-5.554v-2.442c-.844.965-1.815,1.709-2.913,2.234-1.098.524-2.285.787-3.563.787h-.001ZM176.015,19.695c.965,0,1.818-.22,2.56-.66.741-.44,1.326-1.043,1.755-1.809.428-.766.642-1.649.642-2.65,0-.989-.214-1.869-.642-2.641-.428-.772-1.013-1.378-1.755-1.818s-1.595-.66-2.56-.66c-.953,0-1.803.22-2.55.66-.748.44-1.339,1.046-1.773,1.818s-.651,1.652-.651,2.641c0,.977.217,1.851.651,2.623s1.025,1.381,1.773,1.827c.747.446,1.598.669,2.55.669Z" fill="#1d1d1b"></path><path d="M81.761,21.291l3.364-3.364,5.208,5.208-3.364,3.364-5.208-5.208Z" fill="#1d1d1b"></path><path d="M141.585,0c.603,0,1.151.148,1.646.443.495.296.893.691,1.194,1.185.302.495.452,1.043.452,1.646s-.151,1.158-.452,1.664c-.301.506-.699.907-1.194,1.203s-1.043.443-1.646.443-1.155-.147-1.655-.443c-.5-.296-.898-.697-1.194-1.203-.295-.507-.443-1.061-.443-1.664s.15-1.151.452-1.646c.301-.494.699-.889,1.194-1.185C140.434.148,140.982,0,141.585,0"></path><path d="M141.585,8.586c-1.248,0-2.072-.362-2.477-.594-.131-.075-.291.025-.291.176v15.671h5.554v-15.686c0-.151-.162-.252-.293-.175-.408.238-1.239.609-2.493.609Z" fill="#1d1d1b"></path><path d="M52.465,37.065v-7.392h1.268v7.392h-1.268Z" fill="#1d1d1b"></path><path d="M57.281,37.065v-7.392h1.268l3.369,5.26v-5.26h1.268v7.392h-1.268l-3.369-5.259v5.259h-1.268Z" fill="#1d1d1b"></path><path d="M67.454,37.065v-6.263h-1.962v-1.129h5.196v1.129h-1.962v6.263h-1.272Z" fill="#1d1d1b"></path><path d="M73.425,37.065v-7.392h4.018v1.12h-2.75v2.012h2.643v1.11h-2.643v2.029h2.75v1.12h-4.018Z" fill="#1d1d1b"></path><path d="M80.705,37.065v-7.392h2.379c.499,0,.932.088,1.299.263.367.174.652.426.854.754.202.329.302.724.302,1.184,0,.379-.069.717-.208,1.014-.139.298-.336.546-.593.746s-.567.344-.932.431l2.428,3.001h-1.613l-2.186-2.862h-.461v2.862h-1.268ZM81.972,33.136h.721c.323,0,.596-.049.82-.146.224-.097.396-.237.515-.421.12-.184.179-.404.179-.661,0-.385-.131-.685-.394-.898-.263-.213-.636-.32-1.12-.32h-.721v2.446Z" fill="#1d1d1b"></path><path d="M88.781,37.065v-7.392h1.268l3.369,5.26v-5.26h1.268v7.392h-1.268l-3.369-5.259v5.259h-1.268Z" fill="#1d1d1b"></path><path d="M97.354,37.065l2.952-7.392h1.183l2.957,7.392h-1.371l-.694-1.837h-2.961l-.698,1.837h-1.367ZM99.849,34.108h2.102l-1.053-2.719-1.049,2.719Z" fill="#1d1d1b"></path><path d="M107.836,37.065v-6.263h-1.962v-1.129h5.196v1.129h-1.962v6.263h-1.272Z" fill="#1d1d1b"></path><path d="M113.809,37.065v-7.392h1.268v7.392h-1.268Z" fill="#1d1d1b"></path><path d="M121.827,37.209c-.517,0-1-.099-1.451-.296s-.847-.471-1.187-.822c-.341-.351-.607-.758-.8-1.223-.193-.464-.289-.962-.289-1.494s.096-1.033.289-1.496c.192-.463.459-.87.8-1.221.34-.351.735-.625,1.187-.822.451-.196.935-.295,1.451-.295s1.001.099,1.452.295c.45.197.846.472,1.187.822s.607.758.8,1.221.289.962.289,1.496-.097,1.03-.289,1.494c-.192.465-.459.872-.8,1.223-.341.352-.736.625-1.187.822-.451.197-.936.296-1.452.296ZM121.827,35.985c.338,0,.65-.065.938-.196.288-.132.538-.313.751-.547.212-.232.376-.509.492-.826.116-.318.175-.665.175-1.042,0-.373-.059-.72-.175-1.039s-.28-.596-.492-.829c-.213-.232-.463-.415-.751-.546-.288-.132-.601-.197-.938-.197s-.649.065-.936.197c-.287.131-.536.313-.748.546-.213.233-.378.51-.495.829-.118.319-.177.666-.177,1.039,0,.377.059.724.177,1.042.117.317.282.594.495.826.212.233.461.415.748.547.286.131.599.196.936.196Z" fill="#1d1d1b"></path><path d="M128.582,37.065v-7.392h1.268l3.368,5.26v-5.26h1.268v7.392h-1.268l-3.368-5.259v5.259h-1.268Z" fill="#1d1d1b"></path><path d="M137.155,37.065l2.952-7.392h1.183l2.957,7.392h-1.371l-.694-1.837h-2.961l-.698,1.837h-1.367ZM139.65,34.108h2.102l-1.053-2.719-1.049,2.719Z" fill="#1d1d1b"></path><path d="M146.916,37.065v-7.392h1.268v6.271h2.772v1.12h-4.04Z" fill="#1d1d1b"></path><path d="M161.569,37.209c-.353,0-.674-.043-.963-.128-.29-.085-.546-.191-.769-.318s-.411-.254-.566-.383c-.155-.128-.275-.238-.358-.331l.663-1.035c.093.087.203.187.331.3.129.114.278.226.448.334.17.109.359.199.569.271.209.071.436.107.681.107.229,0,.435-.037.613-.11.18-.073.322-.184.428-.333.106-.149.159-.336.159-.561,0-.193-.041-.36-.123-.499s-.2-.261-.354-.365c-.154-.104-.339-.207-.554-.307-.215-.101-.457-.205-.726-.316-.194-.086-.383-.184-.566-.293s-.35-.238-.497-.388c-.148-.149-.266-.321-.353-.518-.086-.195-.13-.417-.13-.665,0-.283.056-.553.166-.807.11-.253.268-.48.471-.681s.446-.357.729-.473c.284-.114.6-.172.945-.172.275,0,.545.038.809.116.265.077.508.179.73.302.223.124.405.258.549.401l-.542.981c-.116-.117-.255-.224-.414-.32-.16-.098-.334-.175-.522-.233-.188-.059-.384-.087-.587-.087-.232,0-.43.043-.591.13-.161.086-.285.2-.372.343-.087.142-.13.299-.13.473,0,.143.03.266.09.367s.143.188.248.262c.106.073.23.141.372.201.142.062.297.124.464.187.331.141.637.279.916.416.279.138.519.293.719.467.2.173.355.377.466.611s.166.513.166.835c0,.466-.111.864-.334,1.196-.223.331-.529.585-.92.759-.392.175-.846.263-1.362.263Z" fill="#1d1d1b"></path><path d="M166.331,37.065l2.952-7.392h1.183l2.957,7.392h-1.371l-.694-1.837h-2.961l-.698,1.837h-1.367ZM168.826,34.108h2.102l-1.053-2.719-1.049,2.719Z" fill="#1d1d1b"></path></svg> 